<svg width="400" height="400" viewBox="0 0 400 400" fill="none" xmlns="http://www.w3.org/2000/svg">
<g clip-path="url(#clip0_1_14)">
<path d="M339.842 177.457C329.82 188.708 328.045 203.798 326.44 219.188C325.242 230.571 324.138 242.124 319.855 252.415C316.235 260.965 310.475 268.439 303.128 274.115C302.469 274.63 301.798 275.125 301.115 275.608H264.57C264.513 275.113 264.469 274.611 264.426 274.115C262.853 255.384 267.102 236.624 276.593 220.399C280.39 214.043 284.973 208.192 290.233 202.982C295.934 212.935 302.971 222.556 302.971 222.556L299.791 194.66C311.543 185.752 325.291 179.847 339.842 177.457Z" fill="#F2F2F2"/>
<path d="M400 210.326C375.666 220.066 368.497 251.343 348.679 268.502C346.233 270.613 343.596 272.492 340.802 274.115C339.899 274.642 338.983 275.144 338.049 275.608H285.442C285.567 275.113 285.687 274.611 285.818 274.115C291.425 252.359 305.329 232.754 324.238 220.555C324.966 220.085 325.7 219.627 326.44 219.188C332.046 215.827 338.007 213.097 344.214 211.048C344.878 222.493 346.885 234.246 346.885 234.246L356.481 207.862C370.972 205.13 385.91 205.976 400 210.326Z" fill="#F2F2F2"/>
<path d="M399.925 274.862C399.925 274.96 399.906 275.057 399.868 275.148C399.831 275.238 399.776 275.321 399.707 275.39C399.637 275.459 399.555 275.514 399.464 275.552C399.374 275.589 399.276 275.608 399.178 275.608H0.746329C0.54839 275.608 0.358557 275.529 0.218593 275.389C0.0786296 275.249 0 275.06 0 274.862C0 274.664 0.0786296 274.474 0.218593 274.334C0.358557 274.194 0.54839 274.115 0.746329 274.115H399.178C399.276 274.115 399.374 274.134 399.464 274.172C399.555 274.209 399.637 274.264 399.707 274.333C399.776 274.403 399.831 274.485 399.868 274.576C399.906 274.666 399.925 274.764 399.925 274.862Z" fill="#CCCCCC"/>
<path d="M250.497 280.426H180.872C177.655 280.428 174.469 279.796 171.496 278.566C168.524 277.336 165.823 275.532 163.547 273.258C161.272 270.984 159.467 268.284 158.236 265.312C157.004 262.34 156.37 259.154 156.37 255.938C156.37 252.721 157.004 249.535 158.236 246.563C159.467 243.591 161.272 240.891 163.547 238.617C165.823 236.343 168.524 234.539 171.496 233.309C174.469 232.079 177.655 231.447 180.872 231.449H250.497C253.714 231.447 256.9 232.079 259.872 233.309C262.845 234.539 265.546 236.343 267.821 238.617C270.096 240.891 271.901 243.591 273.133 246.563C274.364 249.535 274.998 252.721 274.998 255.938C274.998 259.154 274.364 262.34 273.133 265.312C271.901 268.284 270.096 270.984 267.821 273.258C265.546 275.532 262.845 277.336 259.872 278.566C256.9 279.796 253.714 280.428 250.497 280.426Z" fill="#2F2E41"/>
<path d="M186.241 369.716L195.723 376.489L226.363 343.139L212.368 333.142L186.241 369.716Z" fill="#FFB6B6"/>
<path d="M186.034 364.892L188.703 366.799L202.15 370.005L204.708 378.232L204.709 378.232C207.865 380.487 209.996 383.903 210.633 387.729C211.271 391.555 210.362 395.478 208.108 398.634L207.831 399.021L177.257 377.18L186.034 364.892Z" fill="#2F2E41"/>
<path d="M240.073 270.936L230.987 257.576C229.874 243.078 241.033 230.309 255.57 230.024C263.666 229.865 271.58 233.748 275.8 246.879C286.653 280.647 213.945 358.78 213.945 358.78L198.762 351.044L197.318 341.667L204.997 336.013L204.341 327.969L211.753 323.673L240.073 270.936Z" fill="#2F2E41"/>
<path d="M216.337 109.425L227.568 117.977L241.112 122.139C241.112 122.139 246.711 200.899 251.756 205.944C256.801 210.99 252.251 211.125 253.265 217.679C254.279 224.233 256.743 237.668 256.743 237.668C222.688 255.695 193.329 256.178 169.746 235.084C169.444 233.779 169.598 232.41 170.181 231.204C170.763 229.998 171.741 229.028 172.951 228.454C177.34 226.125 168.905 215.255 172.492 213.438C176.079 211.62 171.034 195.854 171.034 195.854L174.343 162.959L171.728 157.701L178.109 125.526L189.182 121.483L193.604 110.826L216.337 109.425Z" fill="#F9A826"/>
<path d="M204.841 104.666C217.109 104.666 227.055 94.7204 227.055 82.4519C227.055 70.1834 217.109 60.2378 204.841 60.2378C192.572 60.2378 182.626 70.1834 182.626 82.4519C182.626 94.7204 192.572 104.666 204.841 104.666Z" fill="#FFB6B6"/>
<path d="M133.292 40.2046C134.227 41.2779 134.915 42.543 135.308 43.911C135.701 45.2789 135.789 46.7164 135.566 48.1221C135.344 49.5278 134.815 50.8676 134.019 52.0471C133.222 53.2266 132.177 54.2171 130.956 54.9488L138.033 88.8136L121.317 82.1955L117.16 51.0515C116.066 48.9193 115.793 46.4601 116.392 44.1399C116.991 41.8197 118.42 39.7997 120.408 38.4627C122.397 37.1256 124.807 36.5645 127.181 36.8856C129.556 37.2066 131.73 38.3876 133.292 40.2047L133.292 40.2046Z" fill="#FFB6B6"/>
<path d="M117.325 62.8351L124.084 125.084L124.324 125.202C124.521 125.299 133.085 129.499 143.597 134.502C145.371 135.346 145.116 139.001 146.97 139.875C148.247 140.477 151.618 138.293 152.908 138.896C164.398 144.27 176.017 149.495 180.647 150.91C186.898 152.891 193.639 152.674 199.75 150.295L199.897 150.228L199.974 150.085C201.535 147.16 202.053 143.79 201.443 140.532C200.832 137.273 199.129 134.32 196.615 132.159C184.419 121.79 169.981 114.398 154.439 110.565L145.596 108.396L134.271 64.052L117.325 62.8351Z" fill="#F9A826"/>
<path d="M186.747 63.368C188.574 58.0533 197.668 54.367 212.411 53.8544C227.154 53.3418 230.893 70.7157 230.893 70.7157C240.735 78.6996 220.384 100.074 219.399 99.3045L219.842 95.2886C220.575 88.6368 223.69 83.4466 219.728 76.5142L215.924 76.5579L208.71 77.9452C208.26 78.0317 207.794 77.9679 207.384 77.7636C206.974 77.5593 206.643 77.2258 206.441 76.8147C206.24 76.4035 206.179 75.9374 206.268 75.4882C206.358 75.0391 206.592 74.6318 206.936 74.3291L207.002 74.271L206.838 74.0172C204.297 75.1833 201.678 76.2645 198.899 76.4278C195.773 76.6116 192.355 75.3675 190.858 72.6172C190.458 71.8612 190.214 71.0328 190.14 70.1808C185.924 71.865 183.997 77.0618 183.997 77.0618C183.997 77.0618 184.92 68.6827 186.747 63.368Z" fill="#2F2E41"/>
<path d="M175.03 18.2628C173.77 13.6562 171.181 9.52286 167.586 6.37892C163.991 3.23499 159.549 1.21979 154.816 0.584989C154.711 0.569423 154.611 0.590005 154.507 0.582893C154.372 0.539539 154.234 0.506159 154.095 0.483023C132.015 -2.51973 106.528 8.59228 97.3258 30.6188C92.7699 24.2688 85.5059 20.1663 77.7369 20.5741C67.8257 21.0945 59.0788 28.6863 56.3994 38.6717C56.2516 39.2719 56.2919 39.9031 56.5148 40.4797C56.7378 41.0562 57.1327 41.5503 57.6459 41.8949C59.3773 43.1998 60.5599 44.1143 62.6902 44.5892C66.7 45.4831 70.724 46.3019 74.7624 47.0458C82.6424 48.4968 90.5636 49.67 98.5259 50.5653C114.682 52.3876 130.95 53.0347 147.2 52.5012C152.611 52.3238 157.829 52.1348 162.787 49.6217C166.433 47.7114 169.516 44.8806 171.73 41.4104C176.059 34.8009 177.202 25.9179 175.03 18.2628Z" fill="#3F3D56"/>
<path d="M172.596 19.4296C171.402 15.3436 169.018 11.706 165.747 8.98101C162.347 6.20701 158.239 4.43876 153.888 3.87588H153.624L153.38 3.83197C153.302 3.80745 153.222 3.78859 153.141 3.77553C145.86 2.91033 138.481 3.43817 131.397 5.3309C117.782 8.91201 104.887 17.3913 98.8664 31.0698L98.0072 33.0328L96.7215 31.3206C92.4881 25.7201 86.1412 22.4525 79.5873 22.4525C79.2612 22.4525 78.9351 22.4588 78.6027 22.4776C69.4963 22.9292 61.3807 29.4768 58.8595 38.4013C58.7964 38.7173 58.8339 39.0451 58.9666 39.3387C59.0993 39.6323 59.3207 39.8769 59.5996 40.0382L59.6999 40.1135C61.3117 41.2612 62.2838 41.9574 64.0713 42.3399C67.966 43.1678 71.9296 43.9329 75.8494 44.6166C83.4507 45.9461 91.2526 47.0437 99.0295 47.8778C112.784 49.3544 126.615 49.9974 140.447 49.8032C142.473 49.7781 144.495 49.7342 146.512 49.6715C151.705 49.5147 156.616 49.3579 161.269 47.1189C164.604 45.4668 167.452 42.9772 169.535 39.894C171.507 36.9126 172.803 33.5359 173.332 30.0007C173.86 26.4655 173.609 22.8574 172.596 19.4296Z" fill="white"/>
<path d="M140.448 49.8032C126.615 49.9974 112.784 49.3544 99.0295 47.8778C91.2526 47.0437 83.4507 45.9461 75.8495 44.6165C71.9297 43.9329 67.966 43.1678 64.0713 42.3399C62.2839 41.9574 61.3118 41.2612 59.6999 40.1135L59.5996 40.0382C59.3207 39.8769 59.0993 39.6323 58.9666 39.3387C58.8339 39.0451 58.7964 38.7173 58.8595 38.4013C61.3807 29.4768 69.4963 22.9292 78.6027 22.4776C78.9351 22.4588 79.2612 22.4525 79.5874 22.4525C86.1412 22.4525 92.4882 25.72 96.7215 31.3206L98.0072 33.0328L98.8664 31.0698C104.887 17.3913 117.782 8.912 131.398 5.33089C134.145 7.81446 135.913 11.6214 134.91 15.1523C133.699 19.4358 128.908 22.1076 128.105 26.4852C127.371 30.4802 130.231 34.1931 133.172 36.9902C136.114 39.7811 139.519 42.5845 140.372 46.5482C140.601 47.619 140.626 48.723 140.448 49.8032Z" fill="#F9A826"/>
<path d="M152.27 37.6299C158.504 37.6299 163.559 32.5757 163.559 26.341C163.559 20.1062 158.504 15.052 152.27 15.052C146.035 15.052 140.981 20.1062 140.981 26.341C140.981 32.5757 146.035 37.6299 152.27 37.6299Z" fill="#F9A826"/>
<path d="M157.002 25.1365L152.768 20.9032C152.703 20.8376 152.625 20.7857 152.54 20.7502C152.454 20.7147 152.362 20.6965 152.27 20.6965C152.177 20.6965 152.085 20.7147 152 20.7502C151.914 20.7857 151.836 20.8376 151.771 20.9032L147.537 25.1365C147.405 25.2689 147.331 25.4483 147.331 25.6353C147.331 25.8223 147.406 26.0016 147.538 26.1338C147.67 26.2661 147.849 26.3404 148.036 26.3405C148.223 26.3406 148.403 26.2664 148.535 26.1343L151.564 23.1053V31.2799C151.564 31.467 151.638 31.6465 151.771 31.7788C151.903 31.9111 152.082 31.9855 152.27 31.9855C152.457 31.9855 152.636 31.9111 152.768 31.7788C152.901 31.6465 152.975 31.467 152.975 31.2799V23.1053L156.004 26.1343C156.07 26.1999 156.147 26.2519 156.233 26.2874C156.319 26.323 156.41 26.3413 156.503 26.3413C156.596 26.3413 156.688 26.3231 156.773 26.2877C156.859 26.2522 156.937 26.2002 157.002 26.1347C157.068 26.0691 157.12 25.9913 157.155 25.9057C157.191 25.82 157.209 25.7282 157.209 25.6355C157.209 25.5428 157.19 25.4511 157.155 25.3654C157.119 25.2798 157.067 25.202 157.002 25.1365Z" fill="white"/>
<path d="M246.742 360.266L237.849 367.796L204.571 337.078L217.697 325.964L246.742 360.266Z" fill="#FFB6B6"/>
<path d="M256.31 366.965L227.635 391.246L227.327 390.884C224.821 387.924 223.593 384.089 223.914 380.224C224.234 376.358 226.077 372.779 229.037 370.272L229.038 370.271L230.911 361.862L244.048 357.561L246.552 355.441L256.31 366.965Z" fill="#2F2E41"/>
<path d="M191.781 275.326L199.132 259.385C199.049 244.845 186.878 233.036 172.366 233.948C164.285 234.455 156.718 238.975 153.591 252.41C145.551 286.955 224.438 358.845 224.438 358.845L238.933 349.887L239.601 340.423L231.483 335.42L231.476 327.349L223.735 323.677L191.781 275.326Z" fill="#2F2E41"/>
<path d="M186.066 244.616V189.241C186.067 188.121 186.513 187.046 187.305 186.253C188.098 185.461 189.172 185.015 190.293 185.014H232.114C233.234 185.015 234.309 185.461 235.101 186.253C235.894 187.046 236.34 188.121 236.341 189.241V244.616C236.34 245.737 235.894 246.812 235.101 247.604C234.309 248.397 233.234 248.843 232.114 248.844H190.293C189.172 248.843 188.098 248.397 187.305 247.604C186.513 246.812 186.067 245.737 186.066 244.616Z" fill="#E6E6E6"/>
<path d="M189.274 227.891V192.291C189.275 191.241 189.692 190.235 190.434 189.492C191.177 188.75 192.183 188.333 193.233 188.332H229.174C230.224 188.333 231.23 188.75 231.972 189.492C232.714 190.235 233.132 191.241 233.133 192.291V241.567C233.132 242.617 232.714 243.623 231.972 244.365C231.23 245.108 230.224 245.525 229.174 245.526H206.909C202.233 245.521 197.751 243.661 194.445 240.355C191.139 237.049 189.279 232.566 189.274 227.891Z" fill="white"/>
<path d="M195.093 202.224C195.094 201.198 195.502 200.215 196.227 199.489C196.953 198.764 197.936 198.356 198.962 198.355H223.894C224.92 198.355 225.904 198.763 226.63 199.488C227.355 200.214 227.763 201.198 227.763 202.224C227.763 203.25 227.355 204.234 226.63 204.959C225.904 205.685 224.92 206.093 223.894 206.093H198.962C197.936 206.091 196.953 205.684 196.227 204.958C195.502 204.233 195.094 203.25 195.093 202.224Z" fill="#E6E6E6"/>
<path d="M195.093 214.26C195.094 213.234 195.502 212.251 196.227 211.526C196.953 210.8 197.936 210.392 198.962 210.391H223.894C224.92 210.391 225.904 210.799 226.63 211.524C227.355 212.25 227.763 213.234 227.763 214.26C227.763 215.286 227.355 216.27 226.63 216.996C225.904 217.721 224.92 218.129 223.894 218.129H198.962C197.936 218.128 196.953 217.72 196.227 216.995C195.502 216.269 195.094 215.286 195.093 214.26Z" fill="#E6E6E6"/>
<path d="M195.093 226.296C195.094 225.271 195.502 224.287 196.227 223.562C196.953 222.837 197.936 222.429 198.962 222.428H223.894C224.92 222.428 225.904 222.835 226.63 223.561C227.355 224.286 227.763 225.27 227.763 226.296C227.763 227.322 227.355 228.306 226.63 229.032C225.904 229.758 224.92 230.165 223.894 230.165H198.962C197.936 230.164 196.953 229.756 196.227 229.031C195.502 228.306 195.094 227.322 195.093 226.296Z" fill="#E6E6E6"/>
<path d="M223.373 249.409C223.322 247.987 223.584 246.57 224.141 245.26C224.697 243.95 225.533 242.778 226.592 241.826C227.65 240.874 228.904 240.166 230.265 239.752C231.627 239.337 233.063 239.226 234.472 239.426L250.299 208.662L259.117 224.329L242.735 251.141C242.242 253.486 240.906 255.568 238.979 256.994C237.053 258.419 234.671 259.089 232.285 258.875C229.898 258.662 227.673 257.58 226.03 255.835C224.388 254.091 223.442 251.804 223.373 249.409H223.373Z" fill="#FFB6B6"/>
<path d="M250.027 241.883L283.974 189.269L283.862 189.027C283.734 188.75 276.047 172.147 268.598 156.94C267.451 154.598 266.31 152.29 265.202 150.079C264.725 149.124 264.254 148.19 263.79 147.276C260.662 141.108 257.928 136.011 256.297 133.589C252.688 128.114 247.315 124.038 241.07 122.038L240.913 121.998L240.763 122.06C237.708 123.349 235.184 125.64 233.607 128.557C232.029 131.473 231.492 134.839 232.085 138.101C235.029 153.835 241.591 168.67 251.251 181.434L256.754 188.688L237.629 230.267L250.027 241.883Z" fill="#F9A826"/>
</g>
<defs>
<clipPath id="clip0_1_14">
<rect width="400" height="399.021" fill="white"/>
</clipPath>
</defs>
</svg>
